<svg width="1412" height="1186" viewBox="0 0 1412 1186" fill="none" xmlns="http://www.w3.org/2000/svg">
<g style="mix-blend-mode:color-burn">
<path fill-rule="evenodd" clip-rule="evenodd" d="M0.663421 1097.17C2.082 806.535 -32.4396 237.206 251.009 59.8069C396.404 -31.1884 545.392 6.06715 667.438 105.491C782.627 -6.48225 934.73 -46.9791 1097.14 72.2101C1392.05 288.631 1260.91 918.052 1405.45 1038.42C1442.06 1064.01 1450.99 1114.42 1425.4 1151.03C1399.81 1187.64 1349.39 1196.57 1312.79 1170.98C1076.53 975.555 1219.61 434.799 1034.57 231.309C945.27 133.106 853.469 150.759 778.617 222.344C967.102 471.544 1026.23 861.398 756.51 960.704C562.601 1032.09 457.514 792.461 456.818 625.894C456.282 497.783 497.616 352.736 567.564 234.564C512.099 186.846 453.021 159.486 399.602 167.808C373.383 178.079 361.134 181.721 336.5 197.117C135.947 322.424 163.404 893.618 162.41 1097.17C162.41 1141.83 126.2 1178.04 81.5367 1178.04C36.8758 1178.04 0.666287 1141.83 0.666287 1097.17H0.663421ZM679.838 365.988C600.352 533.749 582.848 753.219 695.274 809.134C836.303 750.823 788.212 532.233 679.838 365.988Z" fill="#38BF55" fill-opacity="0.5"/>
</g>
</svg>
