<svg width="32" height="32" viewBox="0 0 32 32" fill="none" xmlns="http://www.w3.org/2000/svg">
<rect width="32" height="32" rx="8" fill="#D6FFDF"/>
<path d="M8.5 8.5C8.5 7.70435 8.81607 6.94129 9.37868 6.37868C9.94129 5.81607 10.7044 5.5 11.5 5.5C12.2956 5.5 13.0587 5.81607 13.6213 6.37868C14.1839 6.94129 14.5 7.70435 14.5 8.5C14.5 9.29565 14.1839 10.0587 13.6213 10.6213C13.0587 11.1839 12.2956 11.5 11.5 11.5C10.7044 11.5 9.94129 11.1839 9.37868 10.6213C8.81607 10.0587 8.5 9.29565 8.5 8.5ZM18.6685 10.876L18.7315 10.924C19.3679 11.3958 20.1651 11.5966 20.9491 11.4828C21.7331 11.3689 22.4403 10.9496 22.9162 10.3163C23.3922 9.68294 23.5983 8.88708 23.4896 8.10235C23.3809 7.31762 22.9663 6.60774 22.3361 6.12762C21.7059 5.6475 20.9115 5.43612 20.126 5.53963C19.3406 5.64313 18.628 6.0531 18.1437 6.68007C17.6595 7.30705 17.4428 8.10012 17.5412 8.88621C17.6395 9.67231 18.0447 10.3876 18.6685 10.876ZM13.402 13C13.5904 12.6432 13.8488 12.3282 14.1618 12.0736C14.4748 11.819 14.8359 11.6302 15.2236 11.5184C15.6112 11.4066 16.0174 11.3742 16.4179 11.423C16.8184 11.4718 17.2049 11.601 17.5544 11.8026C17.9038 12.0043 18.2089 12.2744 18.4516 12.5967C18.6942 12.919 18.8694 13.287 18.9665 13.6785C19.0637 14.0701 19.0808 14.4773 19.017 14.8756C18.9532 15.274 18.8096 15.6554 18.595 15.997C18.1821 16.6542 17.5305 17.1258 16.7772 17.3127C16.0239 17.4996 15.2275 17.3872 14.5552 16.9993C13.883 16.6113 13.3873 15.9779 13.1723 15.2322C12.9572 14.4864 13.0396 13.6863 13.402 13ZM7.75 13H11.755C11.4884 13.7613 11.4304 14.5801 11.5871 15.3714C11.7438 16.1627 12.1094 16.8977 12.646 17.5H12.25C11.4767 17.4999 10.7222 17.7388 10.0898 18.184C9.45748 18.6292 8.97817 19.2589 8.7175 19.987C8.214 19.7847 7.74257 19.5104 7.318 19.1725C6.19 18.265 5.5 16.924 5.5 15.25C5.5 14.6533 5.73705 14.081 6.15901 13.659C6.58097 13.2371 7.15326 13 7.75 13ZM19.75 17.5C20.5231 17.5 21.2774 17.7389 21.9095 18.1841C22.5416 18.6293 23.0206 19.259 23.281 19.987C23.791 19.7785 24.2635 19.507 24.682 19.1725C25.81 18.265 26.5 16.924 26.5 15.25C26.5 14.6533 26.2629 14.081 25.841 13.659C25.419 13.2371 24.8467 13 24.25 13H20.245C20.41 13.4695 20.5 13.975 20.5 14.5C20.5014 15.6072 20.0932 16.6757 19.354 17.5H19.75ZM21.8305 20.392C21.94 20.656 22 20.947 22 21.25C22 22.924 21.3115 24.265 20.182 25.1725C19.0705 26.065 17.5795 26.5 16 26.5C14.4205 26.5 12.9295 26.065 11.818 25.1725C10.69 24.265 10 22.924 10 21.25C9.99921 20.9543 10.0569 20.6614 10.1697 20.388C10.2825 20.1147 10.4482 19.8663 10.6572 19.6572C10.8663 19.4482 11.1147 19.2825 11.388 19.1697C11.6614 19.0569 11.9543 18.9992 12.25 19H19.75C20.1957 18.9999 20.6313 19.1321 21.0017 19.38C21.3721 19.6278 21.6606 19.98 21.8305 20.392Z" fill="#096A1E"/>
</svg>
