<svg width="32" height="32" viewBox="0 0 32 32" fill="none" xmlns="http://www.w3.org/2000/svg">
<rect width="32" height="32" rx="8" fill="#D6FFDF"/>
<path d="M16 4C12.4508 4 9.53846 6.91231 9.53846 10.4615V11.3846H8.61538C7.6 11.3846 6.76923 12.2154 6.76923 13.2308V24.3077C6.76923 25.3231 7.6 26.1538 8.61538 26.1538H23.3846C24.4 26.1538 25.2308 25.3231 25.2308 24.3077V13.2308C25.2308 12.2154 24.4 11.3846 23.3846 11.3846H22.4615V10.4615C22.4615 6.91231 19.5492 4 16 4ZM16 5.84615C18.5431 5.84615 20.6154 7.91846 20.6154 10.4615V11.3846H11.3846V10.4615C11.3846 7.91846 13.4569 5.84615 16 5.84615ZM16 14.1538C18.5846 14.1538 20.6154 16.1846 20.6154 18.7692C20.6154 21.3538 18.5846 23.3846 16 23.3846C13.4154 23.3846 11.3846 21.3538 11.3846 18.7692C11.3846 16.1846 13.4154 14.1538 16 14.1538ZM16 16C14.4308 16 13.2308 17.2 13.2308 18.7692C13.2308 20.3385 14.4308 21.5385 16 21.5385C17.5692 21.5385 18.7692 20.3385 18.7692 18.7692C18.7692 18.4923 18.6825 18.2098 18.6825 17.9329C18.4055 18.3945 17.9385 18.7692 17.3846 18.7692C16.6461 18.7692 16 18.1231 16 17.3846C16 16.8308 16.3748 16.3637 16.8363 16.0868C16.5594 16.0868 16.2769 16 16 16Z" fill="#096A1E"/>
</svg>
