<svg width="24" height="24" viewBox="0 0 24 24" fill="none" xmlns="http://www.w3.org/2000/svg">
<path d="M13.028 2.00099C13.7577 1.99819 14.4874 2.00552 15.217 2.02299L15.411 2.02999C15.635 2.03799 15.856 2.04799 16.123 2.05999C17.187 2.10999 17.913 2.27799 18.55 2.52499C19.21 2.77899 19.766 3.12299 20.322 3.67899C20.8303 4.17859 21.2238 4.78293 21.475 5.44999C21.722 6.08699 21.89 6.81399 21.94 7.87799C21.952 8.14399 21.962 8.36599 21.97 8.58999L21.976 8.78399C21.9937 9.51318 22.0014 10.2426 21.999 10.972L22 11.718V13.028C22.0024 13.7577 21.9948 14.4875 21.977 15.217L21.971 15.411C21.963 15.635 21.953 15.856 21.941 16.123C21.891 17.187 21.721 17.913 21.475 18.55C21.2246 19.2177 20.8311 19.8226 20.322 20.322C19.8219 20.8303 19.2173 21.2237 18.55 21.475C17.913 21.722 17.187 21.89 16.123 21.94C15.856 21.952 15.635 21.962 15.411 21.97L15.217 21.976C14.4874 21.9938 13.7577 22.0014 13.028 21.999L12.282 22H10.973C10.2432 22.0025 9.51349 21.9948 8.78397 21.977L8.58997 21.971C8.35258 21.9624 8.11524 21.9524 7.87797 21.941C6.81397 21.891 6.08797 21.721 5.44997 21.475C4.78265 21.2243 4.1782 20.8308 3.67897 20.322C3.17001 19.8223 2.77619 19.2175 2.52497 18.55C2.27797 17.913 2.10997 17.187 2.05997 16.123C2.04883 15.8857 2.03883 15.6484 2.02997 15.411L2.02497 15.217C2.00653 14.4875 1.9982 13.7577 1.99997 13.028V10.972C1.99718 10.2426 2.00451 9.51318 2.02197 8.78399L2.02897 8.58999C2.03697 8.36599 2.04697 8.14399 2.05897 7.87799C2.10897 6.81299 2.27697 6.08799 2.52397 5.44999C2.77534 4.78261 3.16993 4.17843 3.67997 3.67999C4.17886 3.17074 4.78293 2.77656 5.44997 2.52499C6.08797 2.27799 6.81297 2.10999 7.87797 2.05999L8.58997 2.02999L8.78397 2.02499C9.51315 2.00656 10.2426 1.99823 10.972 1.99999L13.028 2.00099ZM12 7.00099C11.3375 6.99162 10.6797 7.11401 10.0649 7.36105C9.45016 7.6081 8.89061 7.97486 8.41881 8.44004C7.94701 8.90522 7.57237 9.45952 7.31665 10.0707C7.06094 10.682 6.92926 11.3379 6.92926 12.0005C6.92926 12.663 7.06094 13.319 7.31665 13.9302C7.57237 14.5414 7.94701 15.0958 8.41881 15.5609C8.89061 16.0261 9.45016 16.3929 10.0649 16.6399C10.6797 16.887 11.3375 17.0094 12 17C13.326 17 14.5978 16.4732 15.5355 15.5355C16.4732 14.5978 17 13.3261 17 12C17 10.6739 16.4732 9.40213 15.5355 8.46445C14.5978 7.52677 13.326 7.00099 12 7.00099ZM12 9.00099C12.3985 8.99364 12.7944 9.06578 13.1648 9.21319C13.5351 9.3606 13.8723 9.58033 14.1567 9.85953C14.4412 10.1387 14.6671 10.4718 14.8214 10.8393C14.9757 11.2068 15.0552 11.6014 15.0552 12C15.0553 12.3986 14.9759 12.7931 14.8218 13.1607C14.6677 13.5283 14.4418 13.8614 14.1575 14.1407C13.8731 14.42 13.536 14.6399 13.1657 14.7874C12.7954 14.9349 12.3995 15.0072 12.001 15C11.2053 15 10.4423 14.6839 9.87965 14.1213C9.31704 13.5587 9.00097 12.7956 9.00097 12C9.00097 11.2043 9.31704 10.4413 9.87965 9.87867C10.4423 9.31606 11.2053 8.99999 12.001 8.99999L12 9.00099ZM17.25 5.50099C16.9274 5.5139 16.6223 5.65114 16.3986 5.88396C16.1749 6.11678 16.05 6.42712 16.05 6.74999C16.05 7.07285 16.1749 7.38319 16.3986 7.61601C16.6223 7.84884 16.9274 7.98607 17.25 7.99899C17.5815 7.99899 17.8994 7.86729 18.1339 7.63287C18.3683 7.39845 18.5 7.08051 18.5 6.74899C18.5 6.41747 18.3683 6.09952 18.1339 5.8651C17.8994 5.63068 17.5815 5.49899 17.25 5.49899V5.50099Z" fill="#016116"/>
</svg>
