<svg width="117" height="37" viewBox="0 0 117 37" fill="none" xmlns="http://www.w3.org/2000/svg">
<path fill-rule="evenodd" clip-rule="evenodd" d="M0.0204241 33.7774C0.0640966 24.83 -0.998688 7.30266 7.72759 1.84122C12.2037 -0.960169 16.7905 0.186784 20.5478 3.24765C24.094 -0.199563 28.7766 -1.4463 33.7767 2.22307C42.8557 8.8858 38.8186 28.2632 43.2684 31.9688C44.3954 32.7565 44.6704 34.3087 43.8826 35.4358C43.0948 36.5628 41.5425 36.8378 40.4155 36.05C33.142 30.0335 37.5469 13.3857 31.8504 7.12109C29.1012 4.09781 26.275 4.64128 23.9706 6.84511C29.7733 14.517 31.5937 26.5191 23.29 29.5763C17.3203 31.7741 14.0851 24.3968 14.0636 19.2688C14.0471 15.3248 15.3196 10.8594 17.4731 7.22131C15.7655 5.75224 13.9467 4.90994 12.3022 5.16615C11.495 5.48235 11.1179 5.59449 10.3595 6.06845C4.18528 9.92618 5.03058 27.511 4.99996 33.7774C4.99996 35.1524 3.88521 36.2672 2.51019 36.2672C1.13526 36.2672 0.0205123 35.1524 0.0205123 33.7774H0.0204241ZM20.9296 11.2673C18.4825 16.432 17.9436 23.1887 21.4047 24.9101C25.7465 23.1149 24.2659 16.3854 20.9296 11.2673Z" fill="#1EBD41"/>
<path d="M50.2841 28.0814V18.6272C50.2841 16.0842 51.8164 14.4868 54.1311 14.4868C56.2828 14.4868 57.6521 15.8561 57.6521 18.3663V28.0814H60.684V18.6272C60.684 16.0842 62.2162 14.4542 64.531 14.4542C66.6826 14.4542 68.0845 15.8886 68.0845 18.3989V28.0814H71.0838V17.6491C71.0838 13.9652 68.8669 11.6832 65.2155 11.6832C62.7379 11.6832 60.8144 12.9221 60.0646 14.9106C59.2496 12.9221 57.4891 11.6832 55.0114 11.6832C52.762 11.6832 51.0667 12.7264 50.2517 14.2261L49.9583 12.1397H47.2198V28.0815H50.2843L50.2841 28.0814ZM76.8215 8.35773C77.9299 8.35773 78.8427 7.44493 78.8427 6.33654C78.8427 5.19549 77.9299 4.31525 76.8215 4.31525C75.7131 4.31525 74.8003 5.19549 74.8003 6.33654C74.8003 7.44493 75.7131 8.35773 76.8215 8.35773ZM75.3218 28.0814H78.3862V12.1396H75.3218V28.0814ZM85.8845 28.0814V19.6377C85.8845 16.5406 87.5471 14.4868 90.416 14.4868C92.7633 14.4868 94.263 15.7909 94.263 19.0184V28.0814H97.3275V18.3337C97.3275 14.2585 95.404 11.6831 91.1985 11.6831C88.9491 11.6831 86.9279 12.7589 85.9171 14.5845L85.5911 12.1395H82.82V28.0814H85.8845V28.0814ZM107.955 28.4726C110.498 28.4726 112.65 27.3642 113.693 25.18L113.954 28.0814H116.693V4.0871H113.661V14.715C112.585 12.7589 110.531 11.6831 108.086 11.6831C103.359 11.6831 100.522 15.2692 100.522 20.1593C100.522 25.0169 103.326 28.4725 107.955 28.4725L107.955 28.4726ZM108.575 25.7015C105.445 25.7015 103.619 23.3542 103.619 20.0616C103.619 16.8014 105.445 14.4542 108.575 14.4542C111.705 14.4542 113.628 16.8014 113.628 20.0616C113.628 23.3869 111.705 25.7015 108.575 25.7015Z" fill="#141010"/>
</svg>
