<svg width="268" height="100" viewBox="0 0 268 100" fill="none" xmlns="http://www.w3.org/2000/svg">
<path fill-rule="evenodd" clip-rule="evenodd" d="M-146.127 139.71C-155.852 110.61 -144.988 83.4466 -121.288 64.8953C-108.346 54.7651 -89.389 45.848 -72.8612 50.2424C-39.8462 59.0219 -4.20097 113.411 28.0387 95.2087C31.1566 93.4483 34.14 91.4129 36.9539 89.1474C32.9425 85.6346 29.1887 81.6407 25.7505 77.1602C11.4554 58.5307 2.20203 26.8389 22.6462 8.94649C26.9061 5.21822 35.3145 0.805732 40.8517 0.12549C43.9774 -0.257734 50.5524 3.72956 52.9782 5.7381C70.3183 20.0991 68.9108 48.8762 59.8864 67.7642C56.5421 74.7638 51.0035 82.4652 44.2627 88.9286C50.6474 93.7575 57.6522 97.5768 64.8034 100.042C84.3656 106.789 106.146 104.64 124.99 96.3921C155.294 83.1272 152.824 42.2707 190.48 25.0055C212.659 14.837 241.877 8.37788 265.671 15.6423C266.873 16.0386 267.52 17.3324 267.117 18.5315C266.714 19.7307 265.413 20.3811 264.211 19.9848C241.71 13.1152 213.342 19.5509 192.383 29.1587C156.306 45.7002 159.22 86.3942 126.765 100.602C97.3715 113.468 64.9077 110.977 40.6406 92.1782C32.8495 98.7088 23.8285 103.356 14.8699 103.587C-8.95099 104.201 -35.7114 76.5804 -55.1739 63.8374C-64.8464 57.504 -73.5633 52.9674 -85.4284 53.753C-97.3704 55.67 -107.436 60.2203 -117.042 67.4002C-140.008 84.5673 -151.102 110.334 -141.797 138.176C-141.377 139.365 -142.006 140.674 -143.202 141.097C-144.398 141.521 -145.708 140.9 -146.129 139.71L-146.127 139.71ZM40.6057 85.9946C56.8601 70.9259 66.1552 47.853 60.1534 26.0421C57.2781 15.5939 51.7025 8.11233 41.2928 4.73321C25.0247 9.11021 15.5797 19.277 15.4068 36.5982C15.2193 55.3807 25.8394 73.4325 40.6065 85.9925L40.6057 85.9946Z" fill="#00B0F0" fill-opacity="0.1"/>
</svg>
