<svg width="351" height="192" viewBox="0 0 351 192" fill="none" xmlns="http://www.w3.org/2000/svg">
<path fill-rule="evenodd" clip-rule="evenodd" d="M0.0100329 84.4469C4.29189 41.8349 33.442 13.4989 73.8876 3.49007C95.9721 -1.97506 124.955 -2.44777 143.302 12.6283C179.952 42.7451 193.982 132.414 244.999 127.746C249.933 127.294 254.852 126.417 259.691 125.148C256.629 118.375 254.166 111.139 252.377 103.464C244.938 71.5524 251.291 25.9136 287.252 14.8733C294.745 12.5732 307.859 11.7816 315.232 14.0944C319.391 15.3996 325.419 24.2486 327.335 28.1939C341.038 56.4185 322.899 92.2332 300.774 111.092C292.575 118.081 281.209 124.704 269.032 129.063C274.337 138.871 281.002 147.751 288.619 154.993C309.456 174.803 338.15 184.566 366.61 184.881C412.375 185.387 432.496 131.975 489.81 131.61C523.569 131.395 564.096 139.939 589.976 162.835C591.267 164.029 591.348 166.047 590.157 167.342C588.967 168.638 586.955 168.72 585.664 167.525C561.19 145.87 521.749 137.784 489.85 137.988C434.938 138.338 415.47 191.799 366.457 191.256C322.065 190.765 282.533 168.968 262.617 131.121C249.077 134.961 235.054 135.7 223.625 130.855C193.231 117.969 175.184 67.463 157.882 40.0795C149.284 26.4696 140.868 15.6945 125.456 9.88511C109.303 5.47265 94.0197 5.48676 77.8206 9.11325C39.0897 17.783 10.4446 44.2083 6.34702 84.9788C6.20073 86.7342 4.66325 88.0381 2.91337 87.8899C1.16349 87.7417 -0.136259 86.1994 0.0114396 84.4454L0.0100329 84.4469ZM266.087 123.231C295.159 113.38 320.005 89.349 324.836 58.1513C327.086 43.6298 324.527 31.2108 314.102 21.0962C313.378 20.3935 312.409 20.0971 311.514 19.9447C289.534 16.1983 271.72 25.582 262.392 45.9115C251.475 69.7053 254.605 98.7722 266.087 123.231Z" fill="#21C444" fill-opacity="0.1"/>
</svg>
